<svg xmlns="http://www.w3.org/2000/svg" viewBox="0 0 100 100" width="100" height="100">
  <rect width="100" height="100" fill="#bf4723"/>
  <g transform="translate(50 50) scale(1) translate(-50 -50)">
    <path d="M46.28,5.60Q54.08,32.39 80.55,10.05Q61.35,41.40 93.42,30.37Q66.65,47.80 95.73,56.30Q65.89,56.59 87.91,83.46Q60.64,67.19 64.59,93.00Q50.48,74.63 34.19,96.03Q42.20,61.93 15.90,82.80Q27.87,61.54 1.96,58.65Q32.14,48.64 1.23,29.75Q36.67,39.18 20.08,7.59Q43.51,29.35 46.28,5.60Z" fill="#eae5d6"/>
    <g fill="#1e2422" transform="rotate(-30 50 50)">
    <rect x="25" y="36" width="11" height="28" rx="3"/>
    <rect x="64" y="36" width="11" height="28" rx="3"/>
    <rect x="36" y="46" width="28" height="8" rx="2"/>
  </g>
  </g>
</svg>
